<svg xmlns="http://www.w3.org/2000/svg" xmlns:xlink="http://www.w3.org/1999/xlink" width="1700" height="50" viewBox="0 0 1700 50">
  <defs>
    <clipPath id="clip-path">
      <rect id="Rectangle_37" data-name="Rectangle 37" width="1700" height="50" fill="#ff8375"/>
    </clipPath>
  </defs>
  <g id="Banner_Wave" data-name="Banner Wave" clip-path="url(#clip-path)">
    <g id="Wave_Plain" data-name="Wave Plain" transform="translate(-126.122 -4847.923)">
      <g id="Group_177" data-name="Group 177" transform="translate(-130.494 4509.063)" opacity="0.2">
        <path id="Path_811" data-name="Path 811" d="M731.847,5206.521c7.811,4.984,9.159,15.439,12.406,24.121,3.021,8.072,6.081,15.938,5.809,24.56-.32,10.146.629,22.671-7.494,28.763-8.181,6.142-19.7-1.121-29.912-.689-9.243.385-19.248,8.276-26.9,3.085-7.734-5.248-4.007-17.633-7.38-26.356-3.111-8.042-12.335-13.878-11.5-22.466.847-8.713,9.006-14.588,15.654-20.292,6.488-5.564,13.615-10.146,21.964-11.965C713.638,5203.3,723.959,5201.5,731.847,5206.521Z" transform="translate(-363.479 -4902.375)" fill="none" stroke="#fff" stroke-width="1" fill-rule="evenodd"/>
        <path id="Path_812" data-name="Path 812" d="M719.447,5156.732c12.618,8.044,14.819,24.893,20.083,38.882,4.9,13.02,9.856,25.688,9.438,39.586-.492,16.344,1.073,36.52-12.02,46.314-13.19,9.873-31.793-1.854-48.279-1.191-14.917.608-31.045,13.295-43.411,4.909-12.5-8.472-6.512-28.421-11.979-42.482-5.041-12.961-19.94-22.381-18.615-36.212,1.345-14.041,14.5-23.492,25.214-32.655,10.458-8.948,21.948-16.317,35.417-19.218C690.052,5151.484,706.7,5148.608,719.447,5156.732Z" transform="translate(-338.895 -4877.991)" fill="none" stroke="#fff" stroke-width="1" fill-rule="evenodd"/>
        <path id="Path_813" data-name="Path 813" d="M707.436,5108.5c17.276,11.011,20.3,34.048,27.52,53.185,6.715,17.8,13.512,35.145,12.953,54.129-.657,22.365,1.5,49.942-16.407,63.329-18.039,13.486-43.51-2.565-66.069-1.665-20.414.811-42.472,18.143-59.4,6.667-17.11-11.606-8.941-38.869-16.434-58.1-6.91-17.734-27.309-30.63-25.509-49.543,1.827-19.2,19.819-32.1,34.473-44.628,14.3-12.223,30.022-22.289,48.453-26.242C667.2,5101.291,689.991,5097.382,707.436,5108.5Z" transform="translate(-315.08 -4854.369)" fill="none" stroke="#fff" stroke-width="1" fill-rule="evenodd"/>
        <path id="Path_814" data-name="Path 814" d="M696.589,5064.924c21.482,13.693,25.256,42.318,34.237,66.1,8.357,22.137,16.815,43.683,16.129,67.283-.807,27.784,1.891,62.053-20.369,78.683-22.421,16.752-54.093-3.209-82.139-2.109-25.38,1-52.795,22.535-73.848,8.262-21.277-14.426-11.132-48.3-20.457-72.2-8.6-22.042-33.964-38.078-31.735-61.576,2.262-23.851,24.625-39.884,42.837-55.443,17.776-15.185,37.313-27.687,60.225-32.593C646.565,5055.946,674.894,5051.095,696.589,5064.924Z" transform="translate(-293.571 -4833.031)" fill="none" stroke="#fff" stroke-width="1" fill-rule="evenodd"/>
        <path id="Path_815" data-name="Path 815" d="M686.514,5024.467c25.389,16.181,29.859,50,40.476,78.1,9.881,26.145,19.881,51.6,19.077,79.479-.946,32.821,2.252,73.317-24.047,92.95-26.49,19.786-63.921-3.807-97.062-2.5-29.99,1.171-62.379,26.6-87.26,9.727-25.146-17.047-13.168-57.061-24.193-85.295-10.165-26.044-40.145-44.994-37.517-72.752,2.668-28.183,29.088-47.118,50.6-65.488,21-17.935,44.084-32.7,71.157-38.489C627.4,5013.854,660.876,5008.129,686.514,5024.467Z" transform="translate(-273.597 -4813.216)" fill="none" stroke="#fff" stroke-width="1" fill-rule="evenodd"/>
        <path id="Path_816" data-name="Path 816" d="M676.051,4982.455c29.446,18.761,34.633,57.975,46.953,90.555,11.464,30.311,23.063,59.831,22.136,92.153-1.085,38.06,2.631,85-27.864,107.768-30.714,22.932-74.126-4.432-112.558-2.932-34.777,1.353-72.332,30.833-101.188,11.264-29.163-19.769-15.282-66.162-28.073-98.9-11.795-30.192-46.564-52.174-43.522-84.357,3.087-32.667,33.723-54.62,58.669-75.916,24.352-20.784,51.114-37.9,82.508-44.606C607.5,4970.135,646.317,4963.5,676.051,4982.455Z" transform="translate(-252.854 -4792.643)" fill="none" stroke="#fff" stroke-width="1" fill-rule="evenodd"/>
        <path id="Path_817" data-name="Path 817" d="M663.264,4931.1c34.4,21.928,40.471,67.731,54.868,105.787,13.4,35.411,26.957,69.893,25.882,107.644-1.265,44.451,3.087,99.286-32.537,125.876-35.875,26.773-86.6-5.19-131.494-3.448-40.629,1.576-84.5,35.994-118.213,13.14-34.074-23.1-17.865-77.284-32.814-115.526-13.786-35.273-54.408-60.944-50.86-98.543,3.6-38.156,39.388-63.79,68.527-88.659,28.444-24.275,59.708-44.254,96.384-52.091C583.176,4916.7,628.524,4908.964,663.264,4931.1Z" transform="translate(-227.503 -4767.497)" fill="none" stroke="#fff" stroke-width="1" fill-rule="evenodd"/>
        <path id="Path_818" data-name="Path 818" d="M649.316,4875.082c39.811,25.365,46.841,78.363,63.506,122.394,15.506,40.973,31.2,80.871,29.964,124.547-1.461,51.43,3.584,114.868-37.63,145.619-41.51,30.973-100.207-6.018-152.157-4-47.011,1.813-97.767,41.636-136.784,15.186-39.43-26.727-20.684-89.414-37.987-133.669-15.957-40.806-62.966-70.521-58.866-114.012,4.161-44.15,45.564-73.795,79.281-102.568,32.911-28.08,69.083-51.19,111.519-60.246C556.642,4858.41,609.112,4849.463,649.316,4875.082Z" transform="translate(-199.847 -4740.062)" fill="none" stroke="#fff" stroke-width="1" fill-rule="evenodd"/>
        <path id="Path_819" data-name="Path 819" d="M635.752,4820.615c45.071,28.72,53.033,88.71,71.9,138.548,17.56,46.378,35.333,91.539,33.935,140.979-1.647,58.2,4.066,130.015-42.58,164.821-46.989,35.05-113.438-6.828-172.246-4.558-53.218,2.056-110.67,47.117-154.84,17.181-44.639-30.26-23.424-101.215-43.016-151.3-18.068-46.185-71.286-79.823-66.652-129.055,4.705-49.964,51.571-83.52,89.734-116.084,37.252-31.786,78.2-57.938,126.235-68.184C530.842,4801.738,590.24,4791.615,635.752,4820.615Z" transform="translate(-172.957 -4713.392)" fill="none" stroke="#fff" stroke-width="1" fill-rule="evenodd"/>
        <path id="Path_820" data-name="Path 820" d="M623.355,4770.828c49.881,31.776,58.7,98.155,79.58,153.3,19.434,51.321,39.107,101.29,37.561,156-1.816,64.409,4.511,143.873-47.106,182.38-52,38.787-125.533-7.559-190.612-5.047-58.892,2.262-122.466,52.131-171.348,18.993-49.4-33.488-25.929-112-47.615-167.423-20-51.114-78.892-88.337-73.766-142.811,5.2-55.292,57.064-92.414,99.294-128.446,41.221-35.164,86.53-64.1,139.689-75.433C507.259,4749.923,572.988,4738.729,623.355,4770.828Z" transform="translate(-148.376 -4689.01)" fill="none" stroke="#fff" stroke-width="1" fill-rule="evenodd"/>
        <path id="Path_821" data-name="Path 821" d="M610.181,4717.914c54.989,35.038,64.709,108.2,87.738,169,21.43,56.577,43.115,111.659,41.415,171.967-2,70.989,4.987,158.58-51.918,201.022-57.313,42.749-138.381-8.337-210.12-5.581-64.921,2.5-135,57.456-188.888,20.928-54.46-36.915-28.591-123.453-52.5-184.55-22.048-56.339-86.974-97.374-81.327-157.42,5.732-60.953,62.9-101.868,109.45-141.583,45.439-38.762,95.384-70.656,153.985-83.144C482.2,4694.873,554.658,4682.531,610.181,4717.914Z" transform="translate(-122.258 -4663.1)" fill="none" stroke="#fff" stroke-width="1" fill-rule="evenodd"/>
        <path id="Path_822" data-name="Path 822" d="M595.844,4660.336c60.548,38.587,71.258,119.133,96.616,186.071,23.6,62.282,47.477,122.934,45.613,189.327-2.2,78.163,5.5,174.6-57.154,221.327-63.1,47.064-152.368-9.184-231.359-6.152-71.482,2.742-148.64,63.25-207.976,23.027-59.966-40.646-31.487-135.922-57.816-203.193-24.28-62.032-95.769-107.222-89.555-173.327,6.308-67.1,69.249-112.148,120.5-155.868,50.029-42.674,105.019-77.781,169.541-91.532C454.926,4634.958,534.706,4621.382,595.844,4660.336Z" transform="translate(-93.832 -4634.903)" fill="none" stroke="#fff" stroke-width="1" fill-rule="evenodd"/>
      </g>
    </g>
    <g id="Wave_Plain-2" data-name="Wave Plain" transform="translate(1245.878 -4637.923)">
      <g id="Group_177-2" data-name="Group 177" transform="translate(-130.494 4509.063)" opacity="0.2">
        <path id="Path_811-2" data-name="Path 811" d="M731.847,5206.521c7.811,4.984,9.159,15.439,12.406,24.121,3.021,8.072,6.081,15.938,5.809,24.56-.32,10.146.629,22.671-7.494,28.763-8.181,6.142-19.7-1.121-29.912-.689-9.243.385-19.248,8.276-26.9,3.085-7.734-5.248-4.007-17.633-7.38-26.356-3.111-8.042-12.335-13.878-11.5-22.466.847-8.713,9.006-14.588,15.654-20.292,6.488-5.564,13.615-10.146,21.964-11.965C713.638,5203.3,723.959,5201.5,731.847,5206.521Z" transform="translate(-363.479 -4902.375)" fill="none" stroke="#fff" stroke-width="1" fill-rule="evenodd"/>
        <path id="Path_812-2" data-name="Path 812" d="M719.447,5156.732c12.618,8.044,14.819,24.893,20.083,38.882,4.9,13.02,9.856,25.688,9.438,39.586-.492,16.344,1.073,36.52-12.02,46.314-13.19,9.873-31.793-1.854-48.279-1.191-14.917.608-31.045,13.295-43.411,4.909-12.5-8.472-6.512-28.421-11.979-42.482-5.041-12.961-19.94-22.381-18.615-36.212,1.345-14.041,14.5-23.492,25.214-32.655,10.458-8.948,21.948-16.317,35.417-19.218C690.052,5151.484,706.7,5148.608,719.447,5156.732Z" transform="translate(-338.895 -4877.991)" fill="none" stroke="#fff" stroke-width="1" fill-rule="evenodd"/>
        <path id="Path_813-2" data-name="Path 813" d="M707.436,5108.5c17.276,11.011,20.3,34.048,27.52,53.185,6.715,17.8,13.512,35.145,12.953,54.129-.657,22.365,1.5,49.942-16.407,63.329-18.039,13.486-43.51-2.565-66.069-1.665-20.414.811-42.472,18.143-59.4,6.667-17.11-11.606-8.941-38.869-16.434-58.1-6.91-17.734-27.309-30.63-25.509-49.543,1.827-19.2,19.819-32.1,34.473-44.628,14.3-12.223,30.022-22.289,48.453-26.242C667.2,5101.291,689.991,5097.382,707.436,5108.5Z" transform="translate(-315.08 -4854.369)" fill="none" stroke="#fff" stroke-width="1" fill-rule="evenodd"/>
        <path id="Path_814-2" data-name="Path 814" d="M696.589,5064.924c21.482,13.693,25.256,42.318,34.237,66.1,8.357,22.137,16.815,43.683,16.129,67.283-.807,27.784,1.891,62.053-20.369,78.683-22.421,16.752-54.093-3.209-82.139-2.109-25.38,1-52.795,22.535-73.848,8.262-21.277-14.426-11.132-48.3-20.457-72.2-8.6-22.042-33.964-38.078-31.735-61.576,2.262-23.851,24.625-39.884,42.837-55.443,17.776-15.185,37.313-27.687,60.225-32.593C646.565,5055.946,674.894,5051.095,696.589,5064.924Z" transform="translate(-293.571 -4833.031)" fill="none" stroke="#fff" stroke-width="1" fill-rule="evenodd"/>
        <path id="Path_815-2" data-name="Path 815" d="M686.514,5024.467c25.389,16.181,29.859,50,40.476,78.1,9.881,26.145,19.881,51.6,19.077,79.479-.946,32.821,2.252,73.317-24.047,92.95-26.49,19.786-63.921-3.807-97.062-2.5-29.99,1.171-62.379,26.6-87.26,9.727-25.146-17.047-13.168-57.061-24.193-85.295-10.165-26.044-40.145-44.994-37.517-72.752,2.668-28.183,29.088-47.118,50.6-65.488,21-17.935,44.084-32.7,71.157-38.489C627.4,5013.854,660.876,5008.129,686.514,5024.467Z" transform="translate(-273.597 -4813.216)" fill="none" stroke="#fff" stroke-width="1" fill-rule="evenodd"/>
        <path id="Path_816-2" data-name="Path 816" d="M676.051,4982.455c29.446,18.761,34.633,57.975,46.953,90.555,11.464,30.311,23.063,59.831,22.136,92.153-1.085,38.06,2.631,85-27.864,107.768-30.714,22.932-74.126-4.432-112.558-2.932-34.777,1.353-72.332,30.833-101.188,11.264-29.163-19.769-15.282-66.162-28.073-98.9-11.795-30.192-46.564-52.174-43.522-84.357,3.087-32.667,33.723-54.62,58.669-75.916,24.352-20.784,51.114-37.9,82.508-44.606C607.5,4970.135,646.317,4963.5,676.051,4982.455Z" transform="translate(-252.854 -4792.643)" fill="none" stroke="#fff" stroke-width="1" fill-rule="evenodd"/>
        <path id="Path_817-2" data-name="Path 817" d="M663.264,4931.1c34.4,21.928,40.471,67.731,54.868,105.787,13.4,35.411,26.957,69.893,25.882,107.644-1.265,44.451,3.087,99.286-32.537,125.876-35.875,26.773-86.6-5.19-131.494-3.448-40.629,1.576-84.5,35.994-118.213,13.14-34.074-23.1-17.865-77.284-32.814-115.526-13.786-35.273-54.408-60.944-50.86-98.543,3.6-38.156,39.388-63.79,68.527-88.659,28.444-24.275,59.708-44.254,96.384-52.091C583.176,4916.7,628.524,4908.964,663.264,4931.1Z" transform="translate(-227.503 -4767.497)" fill="none" stroke="#fff" stroke-width="1" fill-rule="evenodd"/>
        <path id="Path_818-2" data-name="Path 818" d="M649.316,4875.082c39.811,25.365,46.841,78.363,63.506,122.394,15.506,40.973,31.2,80.871,29.964,124.547-1.461,51.43,3.584,114.868-37.63,145.619-41.51,30.973-100.207-6.018-152.157-4-47.011,1.813-97.767,41.636-136.784,15.186-39.43-26.727-20.684-89.414-37.987-133.669-15.957-40.806-62.966-70.521-58.866-114.012,4.161-44.15,45.564-73.795,79.281-102.568,32.911-28.08,69.083-51.19,111.519-60.246C556.642,4858.41,609.112,4849.463,649.316,4875.082Z" transform="translate(-199.847 -4740.062)" fill="none" stroke="#fff" stroke-width="1" fill-rule="evenodd"/>
        <path id="Path_819-2" data-name="Path 819" d="M635.752,4820.615c45.071,28.72,53.033,88.71,71.9,138.548,17.56,46.378,35.333,91.539,33.935,140.979-1.647,58.2,4.066,130.015-42.58,164.821-46.989,35.05-113.438-6.828-172.246-4.558-53.218,2.056-110.67,47.117-154.84,17.181-44.639-30.26-23.424-101.215-43.016-151.3-18.068-46.185-71.286-79.823-66.652-129.055,4.705-49.964,51.571-83.52,89.734-116.084,37.252-31.786,78.2-57.938,126.235-68.184C530.842,4801.738,590.24,4791.615,635.752,4820.615Z" transform="translate(-172.957 -4713.392)" fill="none" stroke="#fff" stroke-width="1" fill-rule="evenodd"/>
        <path id="Path_820-2" data-name="Path 820" d="M623.355,4770.828c49.881,31.776,58.7,98.155,79.58,153.3,19.434,51.321,39.107,101.29,37.561,156-1.816,64.409,4.511,143.873-47.106,182.38-52,38.787-125.533-7.559-190.612-5.047-58.892,2.262-122.466,52.131-171.348,18.993-49.4-33.488-25.929-112-47.615-167.423-20-51.114-78.892-88.337-73.766-142.811,5.2-55.292,57.064-92.414,99.294-128.446,41.221-35.164,86.53-64.1,139.689-75.433C507.259,4749.923,572.988,4738.729,623.355,4770.828Z" transform="translate(-148.376 -4689.01)" fill="none" stroke="#fff" stroke-width="1" fill-rule="evenodd"/>
        <path id="Path_821-2" data-name="Path 821" d="M610.181,4717.914c54.989,35.038,64.709,108.2,87.738,169,21.43,56.577,43.115,111.659,41.415,171.967-2,70.989,4.987,158.58-51.918,201.022-57.313,42.749-138.381-8.337-210.12-5.581-64.921,2.5-135,57.456-188.888,20.928-54.46-36.915-28.591-123.453-52.5-184.55-22.048-56.339-86.974-97.374-81.327-157.42,5.732-60.953,62.9-101.868,109.45-141.583,45.439-38.762,95.384-70.656,153.985-83.144C482.2,4694.873,554.658,4682.531,610.181,4717.914Z" transform="translate(-122.258 -4663.1)" fill="none" stroke="#fff" stroke-width="1" fill-rule="evenodd"/>
        <path id="Path_822-2" data-name="Path 822" d="M595.844,4660.336c60.548,38.587,71.258,119.133,96.616,186.071,23.6,62.282,47.477,122.934,45.613,189.327-2.2,78.163,5.5,174.6-57.154,221.327-63.1,47.064-152.368-9.184-231.359-6.152-71.482,2.742-148.64,63.25-207.976,23.027-59.966-40.646-31.487-135.922-57.816-203.193-24.28-62.032-95.769-107.222-89.555-173.327,6.308-67.1,69.249-112.148,120.5-155.868,50.029-42.674,105.019-77.781,169.541-91.532C454.926,4634.958,534.706,4621.382,595.844,4660.336Z" transform="translate(-93.832 -4634.903)" fill="none" stroke="#fff" stroke-width="1" fill-rule="evenodd"/>
      </g>
    </g>
  </g>
</svg>
