<svg xmlns="http://www.w3.org/2000/svg" width="85.882" height="53.093" viewBox="0 0 85.882 53.093">
  <g id="Drawn_Arrow" data-name="Drawn Arrow" transform="matrix(0.966, 0.259, -0.259, 0.966, 6.729, -1.932)">
    <path id="Fill_4" data-name="Fill 4" d="M0,9.448C.19,7.194.475,4.769.554,2.337.582,1.486.323.684,1.248.2c.19-.1.469-.256.609-.186,2.387,1.2,5.051,1.227,7.555,1.915a7.387,7.387,0,0,1,4.3,2.7A3.361,3.361,0,0,1,14,5.782a3.209,3.209,0,0,1-1.127.212C10.328,5.5,7.788,4.976,5.259,4.4c-.793-.179-.937.133-1.031.843-.217,1.638-.561,3.258-.8,4.894a18.111,18.111,0,0,0-.081,2.13c0,.059.09.128.079.179-.108.533-.159,1.481-.359,1.515a2.908,2.908,0,0,1-1.815-.318C-.352,12.735.144,11.064,0,9.448" transform="translate(0 12)" fill="#35b8be"/>
    <path id="Fill_1" data-name="Fill 1" d="M19.139,34.882a21.249,21.249,0,0,1-3.279-.227A20.909,20.909,0,0,1,9.7,32.3a29.4,29.4,0,0,1-4.885-3.327A15.854,15.854,0,0,1,.043,22.289a1.77,1.77,0,0,1,.4-1.429.592.592,0,0,1,.479-.228,2.277,2.277,0,0,1,.857.265A6.584,6.584,0,0,1,4.537,23.8c.167.272.34.554.518.822a12.222,12.222,0,0,0,7.066,4.96,20.155,20.155,0,0,0,5.572.78A25.712,25.712,0,0,0,26.5,28.676c1.31-.48,1.893-.729,1.973-1.093s-.393-.868-1.311-1.785a12.638,12.638,0,0,1-2.775-4.007,10.789,10.789,0,0,1-.813-4.8,6.866,6.866,0,0,1,6.964-6.622c.189,0,.381.007.572.021a4.7,4.7,0,0,1,2.931,1.674,11.282,11.282,0,0,1,3.27,6.673,13.03,13.03,0,0,1-.806,7.821.662.662,0,0,0-.068.626c.1.165.328.258.688.274.874.041,1.761.1,2.619.158h.006l1.111.073c.26.009.524.014.782.014,5.258,0,10.122-1.943,14.869-5.94A61.26,61.26,0,0,0,69.218,6.325c.366-.6.731-1.208,1.085-1.8.679-1.132,1.381-2.3,2.108-3.431A2.678,2.678,0,0,1,73.683.016.383.383,0,0,1,73.8,0a1.752,1.752,0,0,1,.748.313,4.392,4.392,0,0,0,.41.224c-.043.083-.085.167-.125.248-.086.172-.175.351-.274.519-.136.23-.283.459-.425.68A12.346,12.346,0,0,0,73.364,3.3c-.477,1-.945,2.016-1.4,3-.577,1.258-1.172,2.556-1.791,3.816-.783,1.592-1.608,3.086-2.452,4.441a11.719,11.719,0,0,1-1.108,1.421c-.3.351-.619.715-.891,1.1-.376.527-.731,1.086-1.074,1.626a22.116,22.116,0,0,1-1.811,2.573,48.693,48.693,0,0,1-5.449,5.678A22.586,22.586,0,0,1,50.9,30.816a20.77,20.77,0,0,1-7.376,1.325c-.481,0-.973-.016-1.464-.046l-.763-.046H41.28A21.724,21.724,0,0,1,34.1,30.8a.543.543,0,0,0-.208-.036,1.586,1.586,0,0,0-.87.323A16.32,16.32,0,0,1,23.64,34.68l-.484.031h-.015C21.829,34.8,20.471,34.882,19.139,34.882Zm10.442-6.558-2.676,1.539c.04.1.082.191.123.287l2.725-1.508-.127-.235ZM52.7,25.807l-4.506,2.063.057.108,0,.006.054.1,4.472-1.924.059-.025c-.043-.1-.087-.208-.14-.329ZM32.2,14.707h0a1.973,1.973,0,0,0-.417.051,5.308,5.308,0,0,0-4.013,4.793c-.218,2.634,1.339,4.21,3.055,5.521a.209.209,0,0,0,.127.032,1.206,1.206,0,0,0,.72-.312,9.04,9.04,0,0,0,2.04-5.9q-.095-.512-.186-1.025c-.14-.782-.286-1.59-.453-2.379a.836.836,0,0,0-.872-.778Z" transform="translate(7.023 0.118)" fill="#35b8be"/>
  </g>
</svg>
